# xmcd
#
# Track frame offsets:
#	150
#	15038
#	30256
#	50752
#	68552
#	80104
#	92578
#	109621
#	124760
#	148203
#	162698
#	181441
#	198012
#	212720
#	226939
#	242157
#	257459
#	271186
#	285218
#	302804
#	320254
#	337010
#
# Disc length: 4775 seconds
#
# Revision: 0
# Processed by: cddbd v1.5.2PL0 Copyright (c) Steve Scherf et al.
# Submitted via: EZCDAudioConverter 2.1.5.1
#
DISCID=2a12a516
DTITLE=Various Artist - The Best Country... Ever! Disc 4
DYEAR=1900
DGENRE=
TTITLE0=Gang Marcela - Jak to dobrze, ze radio mam
TTITLE1=Babsztyl - Ogien i woda
TTITLE2=Robert Szymanski - Dusz kowbojska galopuje po niebie
TTITLE3=Lonstar - Jade na poludnie
TTITLE4=Drink Bar - Kiedy gra muzyka
TTITLE5=Alicja Boncol i Koalicja - Dlaczego panie pija do dna
TTITLE6=Zayazd - Easy Rider - Siwy Wilk
TTITLE7=Urszula Chojan - Kocham podroze
TTITLE8=Marysia Gorajska i Awra - Nie zaczynaj nigdy z anilami
TTITLE9=Colorado Band - Wracam do Lodzi
TTITLE10=Andrzej Cierniewski - Mam dzisiaj dobry dzien
TTITLE11=Honky Tonk Brothers - Pusta droga
TTITLE12=Mariusz Kalaga - Agata Osmy Cud Swiata
TTITLE13=Hamak Band - Hamak
TTITLE14=Party Tour - Zycie bierze za pysk
TTITLE15=Droga Na Ostroleke - Moje serce nie hotel
TTITLE16=Antoni Kania - Ja jestem odlotowym kierowca zawodowym
TTITLE17=Krystyna Mazur - Chce gory przenosic
TTITLE18=Tomasz Szwed - Poczatkujaca kelnerka Aldona
TTITLE19=Grupa Furmana - Modlitwa wracajacych
TTITLE20=Gabriela Myciejska - Pierwsza noc wiosny
TTITLE21=Caezry Markiewicz i Koltersi - Wszystkie drogi prowadza do Mragowa
EXTD=
EXTT0=
EXTT1=
EXTT2=
EXTT3=
EXTT4=
EXTT5=
EXTT6=
EXTT7=
EXTT8=
EXTT9=
EXTT10=
EXTT11=
EXTT12=
EXTT13=
EXTT14=
EXTT15=
EXTT16=
EXTT17=
EXTT18=
EXTT19=
EXTT20=
EXTT21=
PLAYORDER=
